<svg width="54" height="26" viewBox="0 0 54 26" fill="none" xmlns="http://www.w3.org/2000/svg">
<path d="M17.7053 13.4525C17.7053 14.2647 17.4644 15.0587 17.0132 15.734C16.5619 16.4094 15.9206 16.9357 15.1702 17.2465C14.4198 17.5574 13.5941 17.6387 12.7975 17.4802C12.0009 17.3218 11.2692 16.9307 10.6949 16.3563C10.1205 15.782 9.72943 15.0503 9.57097 14.2537C9.41252 13.4571 9.49385 12.6314 9.80466 11.881C10.1155 11.1306 10.6418 10.4893 11.3172 10.038C11.9925 9.5868 12.7865 9.34595 13.5987 9.34595C14.6878 9.34595 15.7323 9.77861 16.5025 10.5487C17.2726 11.3189 17.7053 12.3634 17.7053 13.4525Z" stroke="#E6D131" stroke-width="2.10811" stroke-linecap="round" stroke-linejoin="round"/>
<path d="M13.598 4.41797V6.06089" stroke="#E6D131" stroke-width="2.10811" stroke-linecap="round" stroke-linejoin="round"/>
<path d="M13.598 20.8438V22.4867" stroke="#E6D131" stroke-width="2.10811" stroke-linecap="round" stroke-linejoin="round"/>
<path d="M7.20825 7.06226L8.37474 8.22874" stroke="#E6D131" stroke-width="2.10811" stroke-linecap="round" stroke-linejoin="round"/>
<path d="M18.8219 18.6758L19.9884 19.8423" stroke="#E6D131" stroke-width="2.10811" stroke-linecap="round" stroke-linejoin="round"/>
<path d="M4.56409 13.4519H6.20701" stroke="#E6D131" stroke-width="2.10811" stroke-linecap="round" stroke-linejoin="round"/>
<path d="M20.9897 13.4519H22.6327" stroke="#E6D131" stroke-width="2.10811" stroke-linecap="round" stroke-linejoin="round"/>
<path d="M7.20825 19.8423L8.37474 18.6758" stroke="#E6D131" stroke-width="2.10811" stroke-linecap="round" stroke-linejoin="round"/>
<path d="M18.8219 8.22874L19.9884 7.06226" stroke="#E6D131" stroke-width="2.10811" stroke-linecap="round" stroke-linejoin="round"/>
<path d="M43.177 19.9266C44.2923 20.0052 45.411 19.8334 46.4513 19.4238C47.4916 19.0141 48.4271 18.3769 49.1892 17.5589C49.239 17.5063 49.2713 17.4396 49.2817 17.368C49.2921 17.2963 49.2801 17.2232 49.2474 17.1586C49.2147 17.094 49.1628 17.0411 49.0989 17.0072C49.035 16.9732 48.9621 16.9598 48.8903 16.9688C47.5071 17.1328 46.1107 16.8009 44.9493 16.032C43.7879 15.2631 42.937 14.1072 42.5478 12.7698C42.1587 11.4324 42.2567 10.0004 42.8242 8.72847C43.3918 7.45653 44.3922 6.42718 45.6474 5.82355C45.7128 5.79256 45.767 5.74214 45.8027 5.67917C45.8383 5.6162 45.8537 5.54375 45.8466 5.47173C45.8396 5.39971 45.8104 5.33162 45.7632 5.27678C45.716 5.22194 45.653 5.18302 45.5828 5.16533C44.5721 4.90449 43.5181 4.85718 42.488 5.02643C41.458 5.19568 40.4745 5.57777 39.6004 6.14833C38.7263 6.71888 37.9806 7.46537 37.4111 8.34018C36.8416 9.21498 36.4607 10.1989 36.2926 11.2291C36.1246 12.2594 36.1732 13.3133 36.4352 14.3238C36.6972 15.3342 37.167 16.2789 37.8145 17.0977C38.4621 17.9164 39.2732 18.5912 40.1961 19.0789C41.1189 19.5667 42.1334 19.8568 43.1746 19.9306L43.177 19.9266Z" fill="#DBE9FD"/>
<path d="M40.4054 0.351318H13C6.01431 0.351318 0.351318 6.01431 0.351318 13C0.351318 19.9856 6.01431 25.6486 13 25.6486H40.4054C47.391 25.6486 53.054 19.9856 53.054 13C53.054 6.01431 47.391 0.351318 40.4054 0.351318Z" stroke="#DBE9FD" stroke-width="0.702703"/>
</svg>
